<?xml version="1.0" encoding="UTF-8"?> <!-- Generator: Adobe Illustrator 24.3.0, SVG Export Plug-In . SVG Version: 6.00 Build 0) --> <svg xmlns="http://www.w3.org/2000/svg" xmlns:xlink="http://www.w3.org/1999/xlink" id="Layer_1" x="0px" y="0px" viewBox="0 0 1024 1024" xml:space="preserve"> <circle id="XMLID_1_" fill="#8ED500" cx="512" cy="512" r="512"></circle> <g id="LG_GRN_LOGO_3_"> <path fill="#FCFCFC" d="M545.9,317.7c-70.4,0-130.4,32.3-164.1,81.8c-2.8,4.1-7.6,12.9-14,13c-30.8,0.2-32.7-37.7-33.7-71.6 c-0.1-5-4.4-9.1-9.4-9.1l-89.2-0.5c-5.3,0-9.6,4.4-9.5,9.6c2,82.7,17.2,138.9,117.4,161.3c5.5,1.2,9.3,6.2,9.3,11.8 c0,34.4,0,151.7,0,185.8c0,5.2,4.2,9.4,9.4,9.4h86.6c5.2,0,9.4-4.2,9.4-9.4V507.9c0-42.6,30.2-91,87.6-91c54.6,0,87.6,48.4,87.6,91 v191.9c0,5.2,4.2,9.4,9.4,9.4h86.6c5.2,0,9.4-4.2,9.4-9.4V493.7C738.9,395.1,654.8,317.7,545.9,317.7z"></path> </g> </svg> 